<?xml version="1.0" standalone="no"?>
<!DOCTYPE svg PUBLIC "-//W3C//DTD SVG 20010904//EN"
 "http://www.w3.org/TR/2001/REC-SVG-20010904/DTD/svg10.dtd">
<svg version="1.0" xmlns="http://www.w3.org/2000/svg"
 width="300.000000pt" height="188.000000pt" viewBox="0 0 300.000000 188.000000"
 preserveAspectRatio="xMidYMid meet">
<metadata>
Created by potrace 1.10, written by Peter Selinger 2001-2011
</metadata>
<g transform="translate(0.000000,188.000000) scale(0.100000,-0.100000)"
fill="#000000" stroke="none">
<path d="M1430 1762 c0 -12 34 -42 48 -42 7 0 12 -10 12 -22 0 -20 -1 -20 -18
-5 -20 18 -42 22 -42 9 0 -12 34 -42 48 -42 7 0 12 -12 12 -27 l0 -27 -16 22
c-15 21 -44 30 -44 14 0 -12 34 -42 48 -42 7 0 12 -12 12 -27 l0 -27 -16 22
c-15 22 -44 30 -44 13 0 -15 30 -41 46 -41 8 0 14 -10 14 -25 0 -25 0 -25 -20
-5 -21 21 -40 26 -40 11 0 -15 30 -41 46 -41 8 0 14 -10 14 -25 0 -25 0 -25
-20 -5 -19 19 -40 27 -40 14 0 -18 24 -44 40 -44 15 0 20 -7 20 -25 0 -14 -2
-25 -5 -25 -2 0 -31 15 -64 33 l-59 33 29 16 c34 20 43 56 9 38 -11 -6 -28
-22 -37 -36 -14 -22 -14 -27 -2 -35 11 -7 11 -9 -3 -9 -18 0 -48 -26 -48 -41
0 -19 29 -8 48 17 l19 27 46 -28 c26 -15 50 -32 54 -38 6 -11 11 -197 5 -197
-1 0 -50 25 -107 56 -65 35 -105 62 -105 72 0 8 -3 13 -6 10 -3 -4 -14 2 -25
13 -23 23 -39 25 -39 4 0 -15 86 -74 201 -138 37 -20 70 -44 73 -53 7 -18 8
-224 2 -224 -3 0 -70 34 -150 76 -123 64 -146 79 -146 98 0 25 -41 76 -61 76
-6 0 -8 -7 -5 -16 3 -9 6 -18 6 -20 0 -3 11 -9 25 -14 18 -7 25 -17 25 -37 0
-25 14 -36 137 -108 76 -44 145 -88 155 -97 15 -15 18 -36 18 -123 0 -58 -3
-105 -6 -105 -4 0 -94 45 -200 101 l-194 100 -1 57 c0 48 -2 53 -10 32 -6 -13
-9 -44 -7 -68 l3 -45 182 -107 c101 -58 192 -115 203 -125 18 -16 20 -31 20
-121 l0 -102 -92 50 c-51 28 -142 75 -202 105 -60 30 -126 66 -148 79 -37 24
-38 26 -39 87 -1 50 -2 56 -9 32 -4 -16 -10 -51 -13 -77 l-4 -47 234 -138
c128 -75 242 -145 253 -155 15 -14 20 -32 20 -73 0 -63 -7 -85 -26 -85 -8 0
-14 -4 -14 -10 0 -6 28 -10 65 -10 67 0 76 4 50 24 -10 7 -15 32 -17 74 -2 51
1 66 17 81 11 10 121 78 245 151 124 73 228 135 232 139 4 4 4 38 -1 76 -7 52
-6 73 3 80 17 14 39 56 32 62 -12 13 -37 -9 -43 -38 l-6 -31 -21 27 c-13 16
-29 26 -39 24 -16 -4 -16 -6 -2 -26 9 -13 24 -23 34 -23 14 0 20 -10 25 -43 4
-24 3 -54 -2 -66 -6 -17 -71 -55 -245 -146 l-237 -122 0 103 0 103 30 23 c17
12 108 68 203 123 l172 101 3 52 c3 43 6 52 22 52 11 0 24 9 30 19 13 26 13
31 -4 31 -22 0 -56 -54 -56 -89 0 -21 -7 -35 -22 -45 -31 -19 -371 -196 -378
-196 -6 0 -4 219 2 226 5 4 152 92 263 157 40 24 40 24 35 73 l-5 49 -3 -41
-3 -42 -143 -76 c-79 -42 -147 -76 -150 -76 -4 0 -5 52 -4 116 l3 117 107 61
c106 60 108 62 107 96 -1 33 -2 34 -8 7 -5 -23 -24 -37 -108 -82 l-103 -55 0
99 0 99 70 41 c39 23 70 46 70 51 0 5 9 12 20 15 21 7 46 43 36 52 -9 9 -56
-26 -56 -41 0 -7 -6 -19 -14 -25 -11 -9 -17 -6 -30 14 -16 24 -46 35 -46 16 0
-13 29 -41 43 -41 7 0 -11 -14 -40 -30 -29 -17 -54 -30 -57 -30 -3 0 -4 10 -4
23 5 76 -5 379 -11 364 -6 -17 -8 -17 -20 -3 -14 17 -41 22 -41 8z m84 -1440
c8 -13 -11 -35 -23 -28 -16 10 -14 36 3 36 8 0 17 -4 20 -8z"/>
<path d="M1656 1557 c-13 -19 -16 -31 -9 -38 14 -14 35 15 31 43 -3 23 -3 23
-22 -5z"/>
<path d="M1300 1535 c0 -21 43 -62 48 -47 5 15 -24 62 -38 62 -6 0 -10 -7 -10
-15z"/>
<path d="M1376 1534 c-18 -17 -21 -44 -7 -44 11 0 41 39 41 52 0 13 -18 9 -34
-8z"/>
<path d="M1586 1528 c13 -23 37 -48 46 -48 15 0 9 26 -10 43 -22 20 -46 23
-36 5z"/>
<path d="M1280 1482 c0 -12 34 -42 48 -42 17 0 15 15 -6 33 -20 18 -42 22 -42
9z"/>
<path d="M1220 1377 c0 -17 29 -57 41 -57 16 0 10 36 -9 53 -22 20 -32 21 -32
4z"/>
<path d="M1370 1370 c-22 -22 -26 -40 -10 -40 6 0 19 9 30 20 22 22 26 40 10
40 -5 0 -19 -9 -30 -20z"/>
<path d="M1742 1378 c-15 -19 -25 -58 -14 -58 14 0 42 35 42 53 0 20 -13 22
-28 5z"/>
<path d="M1660 1355 c0 -21 42 -63 48 -47 6 19 -5 40 -27 52 -17 9 -21 8 -21
-5z"/>
<path d="M1413 1348 c-21 -28 -24 -38 -9 -38 16 0 46 26 46 41 0 13 -26 11
-37 -3z"/>
<path d="M1300 1300 c-22 -22 -26 -40 -10 -40 6 0 19 9 30 20 22 22 26 40 10
40 -5 0 -19 -9 -30 -20z"/>
<path d="M1762 1294 c-22 -15 -30 -44 -12 -44 6 0 19 9 30 20 36 36 23 53 -18
24z"/>
<path d="M1342 1278 c-14 -14 -16 -38 -3 -38 12 0 41 29 41 41 0 13 -24 11
-38 -3z"/>
<path d="M1387 1252 c-21 -22 -21 -32 -4 -32 14 0 47 31 47 43 0 14 -27 7 -43
-11z"/>
<path d="M1436 1231 c-10 -11 -16 -25 -14 -31 4 -14 48 17 48 36 0 20 -14 18
-34 -5z"/>
<path d="M1264 1220 c-21 -8 -39 -38 -30 -48 9 -8 56 28 56 43 0 8 -1 15 -2
14 -2 0 -12 -4 -24 -9z"/>
<path d="M1140 1182 c0 -11 9 -27 20 -37 19 -18 20 -17 20 6 0 25 -16 49 -32
49 -4 0 -8 -8 -8 -18z"/>
<path d="M1298 1189 c-19 -10 -25 -39 -9 -39 12 0 41 29 41 41 0 12 -10 11
-32 -2z"/>
<path d="M1341 1163 c-13 -11 -22 -25 -20 -32 3 -9 11 -8 28 6 13 11 22 25 20
32 -3 9 -11 8 -28 -6z"/>
<path d="M1218 1149 c-10 -5 -22 -19 -28 -29 -15 -27 13 -27 40 0 32 32 25 51
-12 29z"/>
<path d="M1375 1130 c-10 -11 -15 -23 -12 -26 10 -10 35 3 47 25 15 28 -10 29
-35 1z"/>
<path d="M1750 1120 c6 -11 19 -24 30 -30 17 -9 20 -8 20 9 0 19 -26 41 -50
41 -8 0 -8 -6 0 -20z"/>
<path d="M1420 1110 c-22 -22 -26 -40 -10 -40 13 0 50 37 50 50 0 16 -18 12
-40 -10z"/>
<path d="M1540 1117 c0 -16 31 -47 48 -47 17 0 15 15 -5 32 -30 26 -43 30 -43
15z"/>
<path d="M1846 1094 c-20 -19 -21 -34 -3 -34 14 0 47 31 47 43 0 13 -29 7 -44
-9z"/>
<path d="M1205 1080 c-10 -11 -15 -23 -12 -26 10 -10 35 3 47 25 15 28 -10 29
-35 1z"/>
<path d="M1100 1083 c0 -17 31 -53 46 -53 27 0 13 30 -23 49 -13 6 -23 8 -23
4z"/>
<path d="M1250 1060 c-22 -22 -26 -40 -10 -40 6 0 19 9 30 20 22 22 26 40 10
40 -5 0 -19 -9 -30 -20z"/>
<path d="M1672 1035 c-15 -32 -5 -60 14 -44 15 13 19 55 5 63 -4 3 -13 -6 -19
-19z"/>
<path d="M1292 1038 c-14 -14 -16 -38 -4 -38 10 0 42 33 42 43 0 11 -25 8 -38
-5z"/>
<path d="M1335 1010 c-10 -11 -15 -23 -12 -26 10 -10 35 3 47 25 15 28 -10 29
-35 1z"/>
<path d="M1601 998 c-8 -15 -11 -35 -7 -44 11 -28 28 -1 24 37 l-4 34 -13 -27z"/>
<path d="M1378 988 c-22 -22 -22 -23 -4 -26 11 -3 26 4 33 14 28 38 6 47 -29
12z"/>
<path d="M1152 988 c-18 -18 -15 -41 4 -34 9 3 17 6 19 6 3 0 9 9 15 20 9 17
8 20 -8 20 -10 0 -23 -5 -30 -12z"/>
<path d="M1432 974 c-22 -15 -30 -44 -13 -44 15 0 41 30 41 46 0 17 -1 17 -28
-2z"/>
<path d="M1202 964 c-12 -8 -22 -19 -22 -25 0 -15 26 -10 43 9 30 33 17 43
-21 16z"/>
<path d="M1235 930 c-10 -11 -16 -23 -12 -26 8 -8 44 13 51 31 8 22 -18 19
-39 -5z"/>
<path d="M1850 942 c0 -18 40 -44 56 -38 14 5 13 9 -9 26 -26 21 -47 26 -47
12z"/>
<path d="M1690 926 c0 -16 32 -46 48 -46 15 0 15 12 0 32 -18 21 -48 31 -48
14z"/>
<path d="M1278 908 c-22 -22 -22 -23 -4 -26 11 -3 26 4 33 14 28 38 6 47 -29
12z"/>
<path d="M1850 887 c0 -16 31 -47 48 -47 17 0 15 15 -5 32 -30 26 -43 30 -43
15z"/>
<path d="M1620 881 c0 -15 30 -41 47 -41 14 0 14 2 1 23 -16 23 -48 36 -48 18z"/>
<path d="M1370 862 c-13 -10 -21 -24 -19 -31 3 -9 12 -6 32 9 27 21 35 40 18
40 -5 0 -19 -8 -31 -18z"/>
<path d="M1955 838 c-14 -21 -14 -23 2 -27 16 -3 43 23 43 41 0 17 -29 7 -45
-14z"/>
<path d="M1282 827 c-25 -27 -28 -37 -9 -37 16 0 47 32 47 48 0 19 -14 14 -38
-11z"/>
<path d="M1407 832 c-21 -22 -21 -32 -4 -32 14 0 47 31 47 43 0 14 -27 7 -43
-11z"/>
<path d="M1941 658 c19 -36 49 -51 49 -25 0 17 -32 47 -49 47 -9 0 -9 -5 0
-22z"/>
<path d="M1700 636 c0 -14 36 -46 52 -46 14 0 8 20 -12 40 -24 24 -40 26 -40
6z"/>
<path d="M1820 590 c0 -13 37 -50 50 -50 18 0 10 29 -12 44 -26 18 -38 20 -38
6z"/>
<path d="M1740 546 c0 -14 36 -46 52 -46 14 0 8 20 -12 40 -24 24 -40 26 -40
6z"/>
<path d="M1970 502 c0 -20 36 -59 46 -49 10 10 -7 47 -27 57 -16 9 -19 7 -19
-8z"/>
<path d="M1580 470 c0 -13 37 -50 50 -50 18 0 10 29 -12 44 -26 18 -38 20 -38
6z"/>
<path d="M1890 447 c0 -16 32 -47 48 -47 18 0 14 18 -8 40 -23 23 -40 26 -40
7z"/>
<path d="M1778 393 c-10 -11 -18 -30 -18 -44 l0 -23 21 20 c12 13 19 31 17 44
-3 22 -3 22 -20 3z"/>
</g>
</svg>
