<?xml version="1.0" standalone="no"?>
<!DOCTYPE svg PUBLIC "-//W3C//DTD SVG 20010904//EN"
 "http://www.w3.org/TR/2001/REC-SVG-20010904/DTD/svg10.dtd">
<svg version="1.0" xmlns="http://www.w3.org/2000/svg"
 width="300.000000pt" height="166.000000pt" viewBox="0 0 300.000000 166.000000"
 preserveAspectRatio="xMidYMid meet">
<metadata>
Created by potrace 1.10, written by Peter Selinger 2001-2011
</metadata>
<g transform="translate(0.000000,166.000000) scale(0.100000,-0.100000)"
fill="#000000" stroke="none">
<path d="M1106 1513 c-3 -4 -6 -71 -6 -150 0 -134 1 -143 19 -143 11 0 40 20
65 44 50 49 80 126 74 193 -3 34 -6 38 -38 44 -71 13 -108 17 -114 12z m114
-48 c25 -31 -18 -162 -61 -185 -11 -7 -23 -9 -26 -6 -7 7 -4 186 3 198 9 14
71 9 84 -7z"/>
<path d="M2524 1430 c-77 -38 -134 -123 -134 -199 0 -128 204 -169 390 -78 64
31 87 61 60 77 -7 4 -42 -3 -78 -16 -120 -41 -253 -52 -288 -23 -31 26 -8 97
45 142 38 31 111 60 142 55 l24 -3 -28 -27 c-16 -15 -51 -32 -85 -40 -41 -10
-58 -19 -60 -32 -4 -17 2 -18 51 -14 102 8 200 82 182 137 -13 43 -149 56
-221 21z"/>
<path d="M835 1364 c-14 -15 -15 -29 -8 -103 12 -131 10 -266 -6 -285 -20 -24
-29 -20 -73 27 -47 50 -88 129 -113 217 -21 75 -39 100 -71 100 -41 0 -55 -35
-44 -110 16 -110 12 -230 -9 -275 -48 -104 -169 -148 -252 -92 -32 22 -34 27
-34 78 0 47 -3 54 -21 57 -71 10 -73 -120 -2 -184 60 -55 136 -72 222 -49 117
31 157 78 180 217 l12 72 32 -57 c37 -65 112 -126 155 -127 51 0 97 73 97 158
0 40 14 41 30 3 20 -48 94 -119 133 -126 39 -8 77 8 77 30 0 17 16 20 25 5 11
-18 35 9 35 39 0 15 9 45 21 66 27 53 30 123 6 139 -15 9 -21 7 -33 -8 -23
-32 -56 -128 -57 -169 -2 -33 -4 -37 -22 -33 -11 3 -28 6 -37 6 -30 0 -95 157
-132 320 -21 89 -69 126 -111 84z m73 -89 c7 -28 27 -93 44 -145 45 -144 46
-147 3 -107 -25 24 -43 33 -59 30 -20 -4 -22 -1 -24 44 -1 26 -5 90 -8 141 -6
88 -5 94 12 90 12 -2 23 -19 32 -53z m-297 -99 c31 -93 83 -182 127 -216 33
-26 70 -36 85 -21 21 21 28 11 12 -19 -26 -49 -51 -40 -136 51 l-77 81 -21
-21 c-12 -12 -23 -21 -25 -21 -4 0 -20 199 -19 233 1 27 2 29 14 25 6 -2 24
-44 40 -92z m-67 -293 c-4 -15 -13 -34 -21 -41 -7 -7 -13 -17 -13 -21 0 -10
-62 -46 -82 -47 -28 -2 -21 11 21 39 22 15 52 42 66 62 33 42 38 44 29 8z"/>
<path d="M2093 1351 c-100 -34 -192 -126 -193 -193 0 -31 40 -82 81 -103 60
-31 131 -14 253 61 38 24 73 41 78 38 14 -9 9 -128 -8 -178 -22 -63 -69 -109
-141 -136 -58 -22 -135 -24 -175 -6 -25 11 -23 -15 4 -49 21 -27 23 -27 113
-23 77 3 98 8 137 31 94 55 154 165 145 267 -7 75 -47 210 -63 210 -7 0 -21
-15 -32 -32 -32 -51 -72 -84 -136 -114 -56 -26 -63 -27 -115 -16 -69 15 -86
33 -66 72 32 62 160 140 229 140 34 0 38 -10 16 -38 -24 -29 -26 -51 -6 -58
21 -8 54 13 71 46 19 37 19 65 -1 84 -21 22 -124 20 -191 -3z"/>
<path d="M1672 1283 c-69 -34 -139 -148 -127 -209 18 -98 174 -116 240 -28 12
16 17 17 32 6 32 -22 85 -43 101 -40 10 2 18 13 20 24 2 16 -7 25 -38 39 -42
19 -45 24 -54 108 -3 26 -13 58 -21 71 -30 46 -94 58 -153 29z m103 -54 c4
-12 4 -41 0 -65 -14 -99 -131 -164 -161 -91 -16 37 -5 64 48 122 38 42 57 55
78 55 20 0 31 -6 35 -21z"/>
<path d="M1510 1256 c-55 -14 -105 -44 -145 -86 l-29 -31 -17 23 c-15 19 -19
20 -34 8 -26 -21 -18 -168 11 -207 12 -15 30 -28 40 -28 17 0 19 7 16 66 -3
62 -2 69 27 102 18 20 72 56 122 82 65 34 89 51 87 63 -4 22 -23 24 -78 8z
m-180 -145 c0 -17 -12 -41 -20 -41 -11 0 -21 30 -14 41 7 12 34 12 34 0z"/>
<path d="M1955 949 c-213 -9 -481 -33 -655 -60 -113 -17 -193 -31 -575 -99
-142 -25 -235 -49 -235 -61 0 -5 5 -9 11 -9 14 0 184 30 424 75 105 20 206 38
225 41 19 3 71 11 115 19 44 7 111 16 148 19 37 4 82 8 100 11 74 9 270 25
375 30 116 5 147 -8 45 -18 -32 -3 -71 -9 -88 -12 -16 -3 -68 -12 -115 -20
-253 -45 -427 -76 -445 -79 -11 -3 -74 -16 -140 -29 -66 -14 -160 -35 -210
-47 -49 -12 -106 -26 -125 -30 -19 -5 -54 -13 -76 -19 -78 -21 -211 -8 -277
26 -23 12 -26 17 -16 29 10 12 8 13 -12 6 -16 -6 -24 -17 -24 -33 0 -29 33
-42 162 -64 l84 -15 212 51 c271 65 591 128 881 174 348 55 388 63 405 79 13
14 13 18 1 29 -12 10 -55 11 -195 6z"/>
<path d="M1832 696 c-5 -6 -21 -42 -36 -81 -15 -38 -38 -89 -52 -112 -29 -51
-29 -53 -3 -53 31 0 83 60 123 143 20 40 37 78 38 86 4 18 -58 33 -70 17z"/>
<path d="M2300 640 c-30 -17 -72 -48 -93 -68 l-39 -37 4 45 3 45 -38 3 c-33 3
-44 -2 -81 -36 -23 -22 -65 -47 -93 -56 -42 -14 -56 -26 -87 -71 -45 -65 -90
-101 -165 -131 -42 -17 -51 -24 -38 -30 52 -20 172 28 232 94 96 104 133 139
154 145 21 5 22 3 16 -34 -6 -36 -5 -39 17 -39 40 0 94 19 113 40 18 20 18 20
32 0 8 -11 32 -24 55 -31 73 -19 156 9 183 62 33 62 -2 116 -81 125 -31 4 -51
-2 -94 -26z m107 -54 c-4 -29 -15 -49 -37 -68 -39 -35 -50 -35 -50 0 0 18 11
38 30 57 16 15 27 32 23 38 -7 11 17 28 30 20 5 -3 7 -24 4 -47z m-112 -25
c-17 -34 -17 -34 -39 -25 -20 8 -9 32 23 48 33 18 36 15 16 -23z m-151 -3 c21
-29 20 -38 -2 -38 -21 0 -55 37 -47 50 10 17 33 11 49 -12z"/>
<path d="M1193 543 c-46 -2 -83 -7 -83 -12 0 -4 12 -13 27 -20 21 -10 48 -10
128 0 143 17 164 5 53 -31 -172 -57 -234 -105 -193 -150 10 -11 37 -25 59 -31
67 -17 102 -38 132 -79 35 -47 72 -70 112 -70 49 0 58 7 131 104 39 50 84 99
101 109 34 21 31 37 -6 37 -41 0 -92 -27 -108 -57 -8 -15 -33 -46 -55 -67 -54
-52 -81 -51 -196 5 -107 53 -116 70 -58 118 52 43 174 88 293 108 107 19 130
33 53 33 -27 0 -106 2 -178 4 -71 2 -167 1 -212 -1z"/>
<path d="M2435 446 c-44 -7 -127 -21 -184 -31 l-104 -19 42 -18 c42 -18 44
-18 142 8 55 14 143 31 196 38 57 7 98 17 101 24 5 15 -82 14 -193 -2z"/>
<path d="M1353 404 c-24 -14 -43 -29 -43 -35 0 -18 81 -10 107 11 37 29 46 25
28 -11 -9 -17 -15 -32 -13 -34 2 -2 20 -6 41 -10 36 -7 38 -6 52 29 20 47 20
45 -20 62 -52 21 -104 17 -152 -12z"/>
<path d="M2073 383 c-18 -2 -33 -8 -33 -14 0 -5 -29 -9 -65 -9 -68 0 -82 -9
-40 -28 23 -11 68 -8 105 5 8 3 37 7 63 9 27 1 52 6 55 9 8 8 -27 36 -42 33
-6 0 -26 -3 -43 -5z"/>
</g>
</svg>
