<?xml version="1.0" standalone="no"?>
<!DOCTYPE svg PUBLIC "-//W3C//DTD SVG 20010904//EN"
 "http://www.w3.org/TR/2001/REC-SVG-20010904/DTD/svg10.dtd">
<svg version="1.0" xmlns="http://www.w3.org/2000/svg"
 width="300.000000pt" height="150.000000pt" viewBox="0 0 300.000000 150.000000"
 preserveAspectRatio="xMidYMid meet">
<metadata>
Created by potrace 1.10, written by Peter Selinger 2001-2011
</metadata>
<g transform="translate(0.000000,150.000000) scale(0.100000,-0.100000)"
fill="#000000" stroke="none">
<path d="M1453 1260 c-29 -12 -29 -15 6 -73 l28 -49 32 52 c18 29 29 56 24 61
-14 14 -66 19 -90 9z"/>
<path d="M1354 1218 c12 -17 16 -47 16 -123 0 -65 4 -105 12 -113 7 -7 30 -12
53 -12 l40 0 -2 -75 c-2 -69 -1 -75 17 -75 18 0 20 7 20 74 0 71 1 75 24 78
23 3 21 8 -53 133 -72 121 -79 130 -110 133 -33 3 -33 3 -17 -20z m106 -127
c61 -105 61 -103 4 -95 -27 3 -52 11 -56 18 -11 17 -10 146 2 146 5 0 27 -31
50 -69z"/>
<path d="M1544 1183 c-21 -32 -37 -62 -37 -68 0 -15 74 -135 83 -135 15 0 20
32 20 130 0 55 4 102 10 105 18 11 10 25 -15 25 -19 0 -33 -13 -61 -57z m34
-85 c-1 -29 -5 -35 -15 -27 -20 17 -25 46 -12 70 15 30 30 7 27 -43z"/>
<path d="M1261 1120 c-24 -83 4 -180 69 -237 36 -33 110 -67 120 -57 17 17
-27 89 -84 137 -67 58 -77 75 -86 147 l-6 55 -13 -45z m94 -190 c17 0 38 -27
31 -39 -3 -5 -19 2 -36 17 -16 14 -26 30 -23 36 4 6 8 6 11 -2 2 -7 9 -12 17
-12z"/>
<path d="M1690 1107 c0 -64 -29 -111 -94 -156 -32 -22 -49 -44 -62 -76 -9 -25
-15 -47 -12 -50 12 -13 89 25 130 65 63 61 83 135 64 233 -10 54 -26 45 -26
-16z m-40 -172 c0 -16 -60 -58 -69 -49 -5 4 57 63 67 64 1 0 2 -7 2 -15z"/>
<path d="M443 625 c-41 -18 -66 -56 -66 -103 0 -49 16 -78 56 -102 39 -24 68
-25 113 -4 85 41 85 167 0 208 -41 19 -61 20 -103 1z m102 -50 c16 -15 25 -36
25 -55 0 -38 -39 -80 -73 -80 -42 0 -77 36 -77 80 0 71 76 104 125 55z"/>
<path d="M680 633 c0 -2 20 -34 45 -71 38 -56 45 -75 45 -114 0 -41 3 -48 20
-48 17 0 20 7 20 48 0 39 7 58 45 114 25 37 45 69 45 71 0 2 -11 2 -25 -1 -15
-2 -35 -21 -52 -48 -16 -24 -30 -44 -33 -44 -3 0 -17 20 -31 44 -18 29 -36 45
-53 48 -14 3 -26 3 -26 1z"/>
<path d="M994 528 c-27 -62 -50 -116 -52 -120 -2 -4 6 -8 18 -8 15 0 25 9 33
30 11 28 14 30 67 30 53 0 56 -2 67 -30 8 -21 18 -30 33 -30 12 0 20 4 18 8
-55 137 -103 232 -117 232 -12 0 -32 -33 -67 -112z m88 12 l17 -40 -39 0 -39
0 17 40 c9 22 19 40 22 40 3 0 13 -18 22 -40z"/>
<path d="M90 515 c0 -108 1 -115 20 -115 17 0 20 7 20 45 0 41 2 45 24 45 16
0 31 -12 49 -39 24 -37 61 -60 74 -47 3 3 -9 23 -27 46 -18 23 -31 42 -29 43
2 1 13 7 24 13 14 8 21 23 23 52 4 56 -21 72 -110 72 l-68 0 0 -115z m121 75
c21 -12 25 -40 7 -58 -7 -7 -29 -12 -50 -12 -38 0 -38 0 -38 40 0 38 2 40 31
40 17 0 39 -5 50 -10z"/>
<path d="M1280 518 l0 -113 80 0 c74 0 80 2 80 21 0 19 -5 20 -60 16 l-60 -4
0 96 c0 89 -1 96 -20 96 -19 0 -20 -7 -20 -112z"/>
<path d="M1690 610 c0 -18 4 -20 35 -14 l35 6 0 -101 c0 -94 1 -101 20 -101
19 0 20 7 20 101 l0 101 35 -6 c31 -6 35 -4 35 14 0 19 -6 20 -90 20 -84 0
-90 -1 -90 -20z"/>
<path d="M1972 541 c2 -70 7 -93 22 -110 26 -29 75 -36 119 -18 42 18 57 57
57 155 0 60 -1 62 -25 62 -25 0 -25 -1 -22 -81 2 -70 -1 -82 -17 -95 -11 -8
-30 -14 -42 -14 -38 0 -54 36 -54 117 0 67 -2 73 -21 73 -20 0 -21 -4 -17 -89z"/>
<path d="M2280 521 l0 -109 80 -4 c75 -3 80 -2 80 18 0 19 -5 20 -60 16 l-60
-4 0 96 c0 89 -1 96 -20 96 -19 0 -20 -7 -20 -109z"/>
<path d="M2550 515 c0 -108 1 -115 20 -115 19 0 20 7 20 115 0 108 -1 115 -20
115 -19 0 -20 -7 -20 -115z"/>
<path d="M2710 515 c0 -108 1 -115 20 -115 17 0 20 7 20 40 l0 40 44 0 c53 0
83 22 92 67 5 26 1 37 -19 57 -23 23 -35 26 -92 26 l-65 0 0 -115z m120 67
c19 -16 21 -22 11 -40 -6 -12 -19 -22 -29 -22 -9 0 -27 -3 -39 -6 -21 -6 -23
-3 -23 40 0 44 1 46 29 46 16 0 39 -8 51 -18z"/>
<path d="M640 266 l0 -56 35 0 c25 0 35 4 35 16 0 12 -6 15 -25 10 -24 -6 -25
-4 -25 33 0 22 -4 43 -10 46 -6 4 -10 -15 -10 -49z"/>
<path d="M766 313 c-12 -12 -6 -72 10 -87 33 -33 74 -6 74 49 0 19 -4 37 -10
40 -6 4 -10 -10 -10 -34 0 -22 -5 -43 -10 -46 -19 -12 -42 17 -38 47 5 29 -3
43 -16 31z"/>
<path d="M910 308 c0 -9 7 -21 15 -28 13 -11 12 -15 -6 -38 -13 -17 -16 -28
-9 -30 6 -2 18 4 26 14 13 18 15 18 28 2 23 -30 39 -21 18 10 -18 24 -18 30
-6 47 21 28 17 41 -6 20 -19 -17 -21 -17 -40 0 -17 15 -20 16 -20 3z"/>
<path d="M1050 281 c0 -63 40 -90 74 -52 19 20 19 87 1 85 -5 -1 -9 -15 -7
-31 3 -31 -19 -60 -38 -48 -5 3 -10 24 -10 46 0 21 -4 39 -10 39 -5 0 -10 -18
-10 -39z"/>
<path d="M1330 313 c0 -5 9 -19 20 -33 11 -14 20 -35 20 -47 0 -13 5 -23 10
-23 6 0 10 13 10 29 0 16 7 34 15 41 8 7 15 20 15 29 -1 12 -6 10 -22 -9 l-20
-25 -15 23 c-15 21 -33 30 -33 15z"/>
<path d="M1570 266 c0 -31 5 -56 10 -56 6 0 10 11 10 25 0 18 5 25 20 25 15 0
20 -7 20 -25 0 -14 5 -25 10 -25 6 0 10 22 10 49 0 28 -4 53 -10 56 -6 4 -10
-5 -10 -19 0 -19 -5 -26 -20 -26 -13 0 -20 7 -20 19 0 11 -4 23 -10 26 -6 4
-10 -15 -10 -49z"/>
<path d="M1732 304 c-28 -20 -28 -58 0 -78 28 -20 43 -20 62 0 23 22 20 60 -6
78 -12 9 -25 16 -28 16 -3 0 -16 -7 -28 -16z m46 -16 c29 -29 -3 -73 -34 -47
-17 14 -18 31 -2 47 15 15 21 15 36 0z"/>
<path d="M1898 313 c-36 -4 -55 -23 -23 -23 11 0 15 -11 15 -40 0 -22 5 -40
10 -40 6 0 10 18 10 40 0 29 4 40 15 40 8 0 15 7 15 15 0 8 -1 14 -2 13 -2 -1
-20 -3 -40 -5z"/>
<path d="M2033 312 c-32 -3 -33 -4 -33 -53 l0 -49 41 0 c28 0 39 4 36 13 -2 7
-15 11 -30 9 -37 -5 -36 25 1 31 l27 4 -27 2 c-18 0 -28 7 -28 16 0 11 7 14
24 9 13 -3 27 -1 30 4 9 14 -3 18 -41 14z"/>
<path d="M2140 266 l0 -56 36 0 c24 0 34 4 31 13 -2 6 -14 11 -26 10 -18 -2
-21 2 -21 37 0 21 -4 42 -10 45 -6 4 -10 -15 -10 -49z"/>
<path d="M2278 309 c-27 -15 -21 -39 12 -50 35 -13 30 -32 -6 -23 -13 3 -24 2
-24 -4 0 -15 41 -22 62 -11 27 15 22 39 -12 50 -32 12 -31 34 1 24 23 -8 26
10 3 19 -19 7 -15 8 -36 -5z"/>
<path d="M1200 261 c0 -28 5 -51 10 -51 6 0 10 9 10 20 0 26 14 25 33 -2 8
-13 18 -20 22 -16 4 4 2 15 -5 24 -11 12 -11 17 -1 23 7 5 11 17 9 27 -2 14
-13 20 -41 22 l-37 3 0 -50z m58 22 c2 -8 -5 -13 -17 -13 -12 0 -21 6 -21 16
0 18 31 15 38 -3z"/>
</g>
</svg>
